<?xml version="1.0" encoding="iso-8859-1"?>
<!-- Generator: Adobe Illustrator 19.0.0, SVG Export Plug-In . SVG Version: 6.00 Build 0)  -->
<svg version="1.1" id="Layer_1" xmlns="http://www.w3.org/2000/svg" xmlns:xlink="http://www.w3.org/1999/xlink" x="0px" y="0px"
	 viewBox="0 0 512 512" style="enable-background:new 0 0 512 512;" xml:space="preserve">
<g>
	<g>
		<g>
			<path d="M469.333,170.667h-25.6c-4.719,0-8.533,3.823-8.533,8.533s3.814,8.533,8.533,8.533h25.6c14.114,0,25.6,11.486,25.6,25.6
				v34.133h-51.2c-4.719,0-8.533,3.823-8.533,8.533s3.814,8.533,8.533,8.533h51.2V332.8h-51.2c-4.719,0-8.533,3.823-8.533,8.533
				s3.814,8.533,8.533,8.533h51.2v68.267h-51.2c-4.719,0-8.533,3.823-8.533,8.533s3.814,8.533,8.533,8.533h51.2v34.133
				c0,14.114-11.486,25.6-25.6,25.6h-51.2V179.2c0-4.71-3.814-8.533-8.533-8.533h-68.267c-4.719,0-8.533,3.823-8.533,8.533
				s3.814,8.533,8.533,8.533h59.733v59.733h-59.733c-4.719,0-8.533,3.823-8.533,8.533s3.814,8.533,8.533,8.533h59.733V332.8h-59.733
				c-4.719,0-8.533,3.823-8.533,8.533s3.814,8.533,8.533,8.533h59.733v68.267h-59.733c-4.719,0-8.533,3.823-8.533,8.533
				s3.814,8.533,8.533,8.533h59.733v59.733h-85.333V179.2c0-4.71-3.814-8.533-8.533-8.533h-68.267c-4.719,0-8.533,3.823-8.533,8.533
				s3.814,8.533,8.533,8.533h59.733v59.733h-59.733c-4.719,0-8.533,3.823-8.533,8.533s3.814,8.533,8.533,8.533h59.733V332.8h-59.733
				c-4.719,0-8.533,3.823-8.533,8.533s3.814,8.533,8.533,8.533h59.733v68.267h-59.733c-4.719,0-8.533,3.823-8.533,8.533
				s3.814,8.533,8.533,8.533h59.733v59.733h-85.333V179.2c0-4.71-3.814-8.533-8.533-8.533h-68.267c-4.719,0-8.533,3.823-8.533,8.533
				s3.814,8.533,8.533,8.533h59.733v59.733h-59.733c-4.719,0-8.533,3.823-8.533,8.533s3.814,8.533,8.533,8.533h59.733V332.8h-59.733
				c-4.719,0-8.533,3.823-8.533,8.533s3.814,8.533,8.533,8.533h59.733v68.267h-59.733c-4.719,0-8.533,3.823-8.533,8.533
				s3.814,8.533,8.533,8.533h59.733v59.733h-85.333V179.2c0-4.71-3.814-8.533-8.533-8.533H42.667C19.14,170.667,0,189.807,0,213.333
				v256C0,492.86,19.14,512,42.667,512h426.667C492.86,512,512,492.86,512,469.333v-256C512,189.807,492.86,170.667,469.333,170.667
				z M93.867,247.467h-51.2c-4.719,0-8.533,3.823-8.533,8.533s3.814,8.533,8.533,8.533h51.2V332.8h-51.2
				c-4.719,0-8.533,3.823-8.533,8.533s3.814,8.533,8.533,8.533h51.2v68.267h-51.2c-4.719,0-8.533,3.823-8.533,8.533
				s3.814,8.533,8.533,8.533h51.2v59.733h-51.2c-14.114,0-25.6-11.486-25.6-25.6v-256c0-14.114,11.486-25.6,25.6-25.6h51.2V247.467z
				"/>
			<path d="M42.667,153.6l110.933,0.008c2.355,0,4.489-0.964,6.033-2.509c0.162-0.154,0.222-0.375,0.367-0.546
				c0.563-0.666,1.118-1.348,1.468-2.159c0.188-0.478,0.188-1.024,0.307-1.536c0.128-0.597,0.358-1.152,0.358-1.792
				c0-51.738,42.086-93.841,93.815-93.867c0.017,0,0.034,0.009,0.051,0.009s0.034-0.009,0.051-0.009
				c51.721,0.026,93.798,42.112,93.815,93.841c0,0.017-0.009,0.026-0.009,0.034c0,4.71,3.823,8.533,8.533,8.533l110.942-0.008
				c4.719,0,8.533-3.823,8.533-8.533c0-4.71-3.823-8.533-8.533-8.533l-102.835,0.009c-1.067-13.995-4.753-27.238-10.564-39.305
				l66.918-38.648c4.079-2.355,5.478-7.578,3.123-11.656c-2.364-4.087-7.595-5.478-11.656-3.123L347.46,82.415
				c-7.748-11.281-17.519-21.052-28.791-28.8L342.221,12.8c2.364-4.079,0.964-9.293-3.123-11.656
				c-4.07-2.347-9.301-0.956-11.656,3.123l-23.595,40.875c-12.075-5.811-25.31-9.506-39.313-10.573V8.533
				C264.533,3.823,260.719,0,256,0s-8.533,3.823-8.533,8.533v26.035c-13.995,1.067-27.23,4.762-39.305,10.564L184.567,4.267
				c-2.364-4.079-7.603-5.47-11.656-3.123c-4.087,2.364-5.487,7.578-3.123,11.656l23.552,40.806
				c-11.273,7.748-21.043,17.519-28.8,28.8L97.681,43.819c-4.07-2.364-9.31-0.964-11.657,3.123
				c-2.355,4.079-0.956,9.301,3.123,11.656l66.918,38.63c-5.803,12.066-9.489,25.31-10.564,39.305H42.667
				c-4.71,0-8.533,3.823-8.533,8.533C34.133,149.777,37.948,153.6,42.667,153.6z"/>
			<path d="M294.426,78.558c-4.113-2.372-9.301-0.973-11.656,3.106c-2.372,4.079-0.973,9.301,3.106,11.665
				c9.549,5.53,17.391,13.576,22.656,23.27c1.553,2.85,4.489,4.463,7.509,4.463c1.374,0,2.773-0.341,4.07-1.041
				c4.139-2.253,5.675-7.433,3.422-11.571C316.757,96,306.688,85.658,294.426,78.558z"/>
		</g>
	</g>
</g>
<g>
</g>
<g>
</g>
<g>
</g>
<g>
</g>
<g>
</g>
<g>
</g>
<g>
</g>
<g>
</g>
<g>
</g>
<g>
</g>
<g>
</g>
<g>
</g>
<g>
</g>
<g>
</g>
<g>
</g>
</svg>
